<svg xmlns="http://www.w3.org/2000/svg" xmlns:xlink="http://www.w3.org/1999/xlink" version="1.1" id="Layer_1" x="0px" y="0px" width="100px" height="100px" viewBox="0 0 100 100" enable-background="new 0 0 100 100" xml:space="preserve">
<path fill-rule="evenodd" clip-rule="evenodd" fill="#000000" d="M95.75,92.664c-8.234-1.257-13.26-3.228-18.553-9.923  c-1.504-2.583-1.936-5.278-2.156-7.333c-0.994-9.232,1.91-18.642,0.863-27.183c-1.225-9.973-8.545-18.249-16.396-23.297  c-9.628-6.191-21.948-6.51-33.036-6.034c-2.83,0.124-5.501,1.37-8.233,1.897c-1.065,0.205-5.304,1.725-6.189,1.119L2.557,5.514  c14.792-6.224,38.725-7.881,54.796-1.293c15.766,6.462,29.471,19.899,31.063,35.808c0.324,3.245,0.35,7.373,0,11.648  c-1.055,12.831-10.957,27.535-0.865,34.947C89.838,88.306,96.826,89.123,95.75,92.664z"/>
<path fill-rule="evenodd" clip-rule="evenodd" fill="#000000" d="M73.744,83.174c-6.211-0.336-12.607-1-17.258,0  c-2.797,0.601-5.899,2.967-8.627,4.743C40.022,93.029,32.548,99.469,20.247,100c1.705-8.911,2.021-22.388,0.863-33.22  c2.524-1.936,7.239-1.682,9.059-4.315c-1.735-5.149-8.26-0.072-11.216,1.295c-1.137,3.958-1.322,8.021-0.863,11.648  c-2.204,0.384-3.717,1.458-6.04,1.727c-0.044-8.216,2.98-15.592,5.608-22.868c2.479-6.865,5.078-12.505,9.061-15.101  c6.617-4.509,20.44-5.854,28.475-3.019c5.125,1.806,9.965,6.976,12.082,11.217C72.01,56.864,66.844,74.491,73.744,83.174z"/>
<path fill-rule="evenodd" clip-rule="evenodd" fill="#000000" d="M27.383,34.734c-0.083,0.064-0.188,0.109-0.317,0.133  c-1.064,0.197-2.506-1.581-3.27-2.143c-1.52-1.118-3.039-2.235-4.558-3.353c-1.819-1.339-3.638-2.677-5.458-4.016  c0,0,5.618-2.927,9.918-3.017c0.946,2.752,1.893,5.505,2.839,8.258C26.83,31.446,28.246,34.072,27.383,34.734z"/>
<path fill-rule="evenodd" clip-rule="evenodd" fill="#000000" d="M30.601,33.989L27.583,21.5c0,0,2.738-0.496,4.744-0.456  l0.677,12.206L30.601,33.989z"/>
<polygon fill-rule="evenodd" clip-rule="evenodd" fill="#000000" points="35.181,32.564 35.778,21.044 39.663,21.044 37.422,32.564   "/>
<polygon fill-rule="evenodd" clip-rule="evenodd" fill="#000000" points="40.094,32.263 42.683,22.339 45.701,22.773 42,32.564 "/>
<polygon fill-rule="evenodd" clip-rule="evenodd" fill="#000000" points="45.638,32.263 48.259,23.167 50.88,24.497 46.583,32.564   "/>
<polygon fill-rule="evenodd" clip-rule="evenodd" fill="#000000" points="50.017,32.695 53.469,25.359 55.625,26.222 50.88,32.695   "/>
<polygon fill-rule="evenodd" clip-rule="evenodd" fill="#000000" points="54.33,33.989 57.781,27.518 59.508,28.381 55.084,34.051   "/>
<polygon fill-rule="evenodd" clip-rule="evenodd" fill="#000000" points="57.781,35.333 61.167,29.243 62.959,30.538 58.25,35.75   "/>
<polygon fill-rule="evenodd" clip-rule="evenodd" fill="#000000" points="60.37,36.361 64.686,31.832 65.117,33.167 "/>
<polygon fill-rule="evenodd" clip-rule="evenodd" fill="#000000" points="62.529,38.52 66.412,34.851 67.417,35.75 "/>
<polygon fill-rule="evenodd" clip-rule="evenodd" fill="#000000" points="64.686,39.597 68.247,36.685 68.667,38.141 "/>
<polygon fill-rule="evenodd" clip-rule="evenodd" fill="#000000" points="66.467,41.323 69.039,40.676 69.039,40.999 66.676,41.75   "/>
</svg>